<svg width="200" height="56" viewBox="0 0 200 56" fill="none" xmlns="http://www.w3.org/2000/svg">
  <rect width="200" height="56" rx="12" fill="#0b1e3b"/>
  <path d="M32 38L40 18H48L56 38H48.6L47 34H41L39.4 38H32ZM43 29H45L43.9 25.8L43 29Z" fill="#E6F0FF"/>
  <path d="M64 18H72L78 28L84 18H92V38H84V28.8L78 38H72L64 28.8V38H56V18H64V18Z" fill="#E6F0FF"/>
  <path d="M106 18H114L126 32.4V18H134V38H126L114 23.6V38H106V18Z" fill="#E6F0FF"/>
  <path d="M148 18H156L166 29L176 18H184V38H176V28.4L166 38H156L148 28.4V38H140V18H148Z" fill="#38CCEE"/>
</svg>
